<svg width="29" height="29" viewBox="0 0 29 29" fill="none" xmlns="http://www.w3.org/2000/svg">
<g clip-path="url(#clip0)">
<path d="M10.6815 22.5397L15.088 14.9265C15.111 14.8804 15.1456 14.8227 15.1687 14.7766C15.2379 14.6151 15.2841 14.4536 15.2956 14.2806C15.2956 14.2575 15.2956 14.2344 15.3071 14.2229L15.3071 14.1998L15.3071 14.1767V14.1537L15.3071 14.1306C15.3071 14.1306 15.3071 14.1306 15.3071 14.1075C15.3071 14.1075 15.3071 14.1075 15.3071 14.0845L15.2956 14.0729C15.2956 14.0498 15.2956 14.0268 15.2841 14.0152C15.2725 13.8422 15.2264 13.6807 15.1572 13.5192C15.1341 13.4731 15.111 13.4269 15.0764 13.3693L10.6815 5.74452C10.3009 5.08701 9.4934 4.87938 8.88204 5.30618C8.27067 5.73298 8.08611 6.60965 8.46677 7.26716L11.6274 12.7348L5.6868 12.7233C4.97162 12.7233 4.38332 13.3577 4.38332 14.1421C4.38332 14.9265 4.97162 15.561 5.6868 15.561L11.6159 15.561L8.45524 21.0286C8.07458 21.6861 8.24761 22.5743 8.87051 22.9896C9.49341 23.4049 10.2893 23.2088 10.6815 22.5397Z" fill="#175D57"/>
<path d="M15.5609 13.3001C15.6532 13.5077 15.7109 13.7269 15.7339 13.9576L15.7339 13.9806C15.7339 14.0037 15.7339 14.0268 15.7339 14.0498L15.7339 14.1191L15.7339 14.1421L15.7339 14.1652L15.7339 14.1883V14.2344C15.7339 14.2575 15.7224 14.2921 15.7339 14.3267C15.7109 14.5574 15.6532 14.7766 15.5609 14.9842C15.5263 15.0419 15.5032 15.1111 15.4686 15.1688L14.2459 17.2912L18.0064 23.7279L20.2211 22.2052L16.3453 15.561L23.5894 15.561V12.7233L16.3453 12.7233L20.198 6.05596L17.9833 4.53332L14.2228 10.993L15.4455 13.1155C15.4802 13.1732 15.5148 13.2308 15.5609 13.3001Z" fill="#175D57"/>
</g>
<defs>
<clipPath id="clip0">
<rect width="20" height="20" fill="white" transform="translate(14.1421) rotate(45)"/>
</clipPath>
</defs>
</svg>
